<svg xmlns="http://www.w3.org/2000/svg" width="78" height="78" viewBox="0 0 78 78">
  <g id="aparat" transform="translate(-5 -5)">
    <path id="Path_111" data-name="Path 111" d="M39.651,7.332l-8.857-2A13.41,13.41,0,0,0,14.758,15.46L12.74,24.391A36.961,36.961,0,0,1,39.651,7.332ZM7.332,48.35l-2,8.857A13.41,13.41,0,0,0,15.46,73.242l8.931,2.018A36.965,36.965,0,0,1,7.332,48.35ZM72.54,14.758,63.609,12.74A36.961,36.961,0,0,1,80.668,39.648l2-8.857A13.41,13.41,0,0,0,72.54,14.758ZM48.35,80.668l8.857,2A13.41,13.41,0,0,0,73.242,72.54l2.018-8.931A36.961,36.961,0,0,1,48.35,80.668Z" transform="translate(0 0)" fill="#103a55"/>
    <path id="Path_112" data-name="Path 112" d="M40.424,8A32.424,32.424,0,1,0,72.848,40.424,32.423,32.423,0,0,0,40.424,8ZM32.318,18.133a8.106,8.106,0,1,1-8.106,8.106A8.106,8.106,0,0,1,32.318,18.133Zm-6.08,38.5a8.106,8.106,0,1,1,8.106-8.106A8.106,8.106,0,0,1,26.239,56.636ZM36.371,40.424a4.053,4.053,0,1,1,4.053,4.053A4.052,4.052,0,0,1,36.371,40.424ZM48.53,62.716a8.106,8.106,0,1,1,8.106-8.106A8.106,8.106,0,0,1,48.53,62.716Zm6.08-22.292a8.106,8.106,0,1,1,8.106-8.106A8.106,8.106,0,0,1,54.61,40.424Z" transform="translate(3.576 3.576)" fill="#103a55"/>
  </g>
</svg>
