
<svg viewBox="0 0 200 200" width="452.627" height="501.645" xmlns="http://www.w3.org/2000/svg">
  <path fill="#fe1f4c" d="M30.4,-42.9C42.4,-39.5,57.3,-36.3,67.1,-27.1C76.8,-17.9,81.3,-2.8,79.8,11.8C78.2,26.4,70.6,40.5,59.7,49.9C48.7,59.3,34.4,64,19.3,70.7C4.1,77.5,-11.9,86.4,-24.7,83.1C-37.5,79.9,-47.1,64.5,-56.9,50.7C-66.7,36.9,-76.7,24.7,-82.2,9.7C-87.7,-5.3,-88.6,-23.1,-80,-34.3C-71.4,-45.5,-53.3,-50.2,-38.4,-52.3C-23.5,-54.4,-11.7,-54,-1.3,-52C9.2,-50,18.3,-46.4,30.4,-42.9Z" transform="translate(100 100)" />
</svg>
