<svg xmlns="http://www.w3.org/2000/svg" width="652.627" height="701.645" viewBox="0 0 652.627 701.645">
  <path id="blob_2_" data-name="blob(2)" d="M320.735-28.262c41.1,21.336,82.833,44.24,114.208,79.695,31.062,35.141,52.084,82.833,55.222,132.407,3.451,49.574-10.354,101.344-37.651,143.7-26.983,42.671-67.458,75.93-112.012,89.735-44.554,14.119-93.814,8.471-141.819,6.589-48.005-1.569-95.069.628-139-13.805S-24.4,364.565-51.7,323.776s-41.416-91.3-40.789-141.506S-76.8,82.181-52.011,37,6.975-48.343,50.274-68.423,145.657-88.5,192.094-78.777C238.53-68.737,279.319-49.6,320.735-28.262Z" transform="translate(545.304 206.503) rotate(106)" fill="#fe1f4c"/>
</svg>
