<svg xmlns="http://www.w3.org/2000/svg" xmlns:xlink="http://www.w3.org/1999/xlink" width="121" height="121" viewBox="0 0 121 121">
  <defs>
    <clipPath id="clip-path">
      <rect width="121" height="121" fill="none"/>
    </clipPath>
  </defs>
  <g id="Repeat_Grid_6" data-name="Repeat Grid 6" clip-path="url(#clip-path)">
    <g transform="translate(-1579 -2627)">
      <rect id="Rectangle_43" data-name="Rectangle 43" width="9" height="9" rx="4.5" transform="translate(1579 2627)" fill="rgba(183,194,206,0.55)"/>
    </g>
    <g transform="translate(-1557 -2627)">
      <rect id="Rectangle_43-2" data-name="Rectangle 43" width="9" height="9" rx="4.5" transform="translate(1579 2627)" fill="rgba(183,194,206,0.55)"/>
    </g>
    <g transform="translate(-1535 -2627)">
      <rect id="Rectangle_43-3" data-name="Rectangle 43" width="9" height="9" rx="4.5" transform="translate(1579 2627)" fill="rgba(183,194,206,0.55)"/>
    </g>
    <g transform="translate(-1513 -2627)">
      <rect id="Rectangle_43-4" data-name="Rectangle 43" width="9" height="9" rx="4.5" transform="translate(1579 2627)" fill="rgba(183,194,206,0.55)"/>
    </g>
    <g transform="translate(-1491 -2627)">
      <rect id="Rectangle_43-5" data-name="Rectangle 43" width="9" height="9" rx="4.5" transform="translate(1579 2627)" fill="rgba(183,194,206,0.55)"/>
    </g>
    <g transform="translate(-1469 -2627)">
      <rect id="Rectangle_43-6" data-name="Rectangle 43" width="9" height="9" rx="4.5" transform="translate(1579 2627)" fill="rgba(183,194,206,0.55)"/>
    </g>
    <g transform="translate(-1579 -2605)">
      <rect id="Rectangle_43-7" data-name="Rectangle 43" width="9" height="9" rx="4.5" transform="translate(1579 2627)" fill="rgba(183,194,206,0.55)"/>
    </g>
    <g transform="translate(-1557 -2605)">
      <rect id="Rectangle_43-8" data-name="Rectangle 43" width="9" height="9" rx="4.5" transform="translate(1579 2627)" fill="rgba(183,194,206,0.55)"/>
    </g>
    <g transform="translate(-1535 -2605)">
      <rect id="Rectangle_43-9" data-name="Rectangle 43" width="9" height="9" rx="4.5" transform="translate(1579 2627)" fill="rgba(183,194,206,0.55)"/>
    </g>
    <g transform="translate(-1513 -2605)">
      <rect id="Rectangle_43-10" data-name="Rectangle 43" width="9" height="9" rx="4.5" transform="translate(1579 2627)" fill="rgba(183,194,206,0.55)"/>
    </g>
    <g transform="translate(-1491 -2605)">
      <rect id="Rectangle_43-11" data-name="Rectangle 43" width="9" height="9" rx="4.5" transform="translate(1579 2627)" fill="rgba(183,194,206,0.55)"/>
    </g>
    <g transform="translate(-1469 -2605)">
      <rect id="Rectangle_43-12" data-name="Rectangle 43" width="9" height="9" rx="4.5" transform="translate(1579 2627)" fill="rgba(183,194,206,0.55)"/>
    </g>
    <g transform="translate(-1579 -2583)">
      <rect id="Rectangle_43-13" data-name="Rectangle 43" width="9" height="9" rx="4.5" transform="translate(1579 2627)" fill="rgba(183,194,206,0.55)"/>
    </g>
    <g transform="translate(-1557 -2583)">
      <rect id="Rectangle_43-14" data-name="Rectangle 43" width="9" height="9" rx="4.5" transform="translate(1579 2627)" fill="rgba(183,194,206,0.55)"/>
    </g>
    <g transform="translate(-1535 -2583)">
      <rect id="Rectangle_43-15" data-name="Rectangle 43" width="9" height="9" rx="4.5" transform="translate(1579 2627)" fill="rgba(183,194,206,0.55)"/>
    </g>
    <g transform="translate(-1513 -2583)">
      <rect id="Rectangle_43-16" data-name="Rectangle 43" width="9" height="9" rx="4.5" transform="translate(1579 2627)" fill="rgba(183,194,206,0.55)"/>
    </g>
    <g transform="translate(-1491 -2583)">
      <rect id="Rectangle_43-17" data-name="Rectangle 43" width="9" height="9" rx="4.5" transform="translate(1579 2627)" fill="rgba(183,194,206,0.55)"/>
    </g>
    <g transform="translate(-1469 -2583)">
      <rect id="Rectangle_43-18" data-name="Rectangle 43" width="9" height="9" rx="4.5" transform="translate(1579 2627)" fill="rgba(183,194,206,0.55)"/>
    </g>
    <g transform="translate(-1579 -2561)">
      <rect id="Rectangle_43-19" data-name="Rectangle 43" width="9" height="9" rx="4.5" transform="translate(1579 2627)" fill="rgba(183,194,206,0.55)"/>
    </g>
    <g transform="translate(-1557 -2561)">
      <rect id="Rectangle_43-20" data-name="Rectangle 43" width="9" height="9" rx="4.5" transform="translate(1579 2627)" fill="rgba(183,194,206,0.55)"/>
    </g>
    <g transform="translate(-1535 -2561)">
      <rect id="Rectangle_43-21" data-name="Rectangle 43" width="9" height="9" rx="4.5" transform="translate(1579 2627)" fill="rgba(183,194,206,0.55)"/>
    </g>
    <g transform="translate(-1513 -2561)">
      <rect id="Rectangle_43-22" data-name="Rectangle 43" width="9" height="9" rx="4.5" transform="translate(1579 2627)" fill="rgba(183,194,206,0.55)"/>
    </g>
    <g transform="translate(-1491 -2561)">
      <rect id="Rectangle_43-23" data-name="Rectangle 43" width="9" height="9" rx="4.5" transform="translate(1579 2627)" fill="rgba(183,194,206,0.55)"/>
    </g>
    <g transform="translate(-1469 -2561)">
      <rect id="Rectangle_43-24" data-name="Rectangle 43" width="9" height="9" rx="4.5" transform="translate(1579 2627)" fill="rgba(183,194,206,0.55)"/>
    </g>
    <g transform="translate(-1579 -2539)">
      <rect id="Rectangle_43-25" data-name="Rectangle 43" width="9" height="9" rx="4.5" transform="translate(1579 2627)" fill="rgba(183,194,206,0.55)"/>
    </g>
    <g transform="translate(-1557 -2539)">
      <rect id="Rectangle_43-26" data-name="Rectangle 43" width="9" height="9" rx="4.5" transform="translate(1579 2627)" fill="rgba(183,194,206,0.55)"/>
    </g>
    <g transform="translate(-1535 -2539)">
      <rect id="Rectangle_43-27" data-name="Rectangle 43" width="9" height="9" rx="4.5" transform="translate(1579 2627)" fill="rgba(183,194,206,0.55)"/>
    </g>
    <g transform="translate(-1513 -2539)">
      <rect id="Rectangle_43-28" data-name="Rectangle 43" width="9" height="9" rx="4.5" transform="translate(1579 2627)" fill="rgba(183,194,206,0.55)"/>
    </g>
    <g transform="translate(-1491 -2539)">
      <rect id="Rectangle_43-29" data-name="Rectangle 43" width="9" height="9" rx="4.5" transform="translate(1579 2627)" fill="rgba(183,194,206,0.55)"/>
    </g>
    <g transform="translate(-1469 -2539)">
      <rect id="Rectangle_43-30" data-name="Rectangle 43" width="9" height="9" rx="4.5" transform="translate(1579 2627)" fill="rgba(183,194,206,0.55)"/>
    </g>
    <g transform="translate(-1579 -2517)">
      <rect id="Rectangle_43-31" data-name="Rectangle 43" width="9" height="9" rx="4.5" transform="translate(1579 2627)" fill="rgba(183,194,206,0.55)"/>
    </g>
    <g transform="translate(-1557 -2517)">
      <rect id="Rectangle_43-32" data-name="Rectangle 43" width="9" height="9" rx="4.5" transform="translate(1579 2627)" fill="rgba(183,194,206,0.55)"/>
    </g>
    <g transform="translate(-1535 -2517)">
      <rect id="Rectangle_43-33" data-name="Rectangle 43" width="9" height="9" rx="4.5" transform="translate(1579 2627)" fill="rgba(183,194,206,0.55)"/>
    </g>
    <g transform="translate(-1513 -2517)">
      <rect id="Rectangle_43-34" data-name="Rectangle 43" width="9" height="9" rx="4.5" transform="translate(1579 2627)" fill="rgba(183,194,206,0.55)"/>
    </g>
    <g transform="translate(-1491 -2517)">
      <rect id="Rectangle_43-35" data-name="Rectangle 43" width="9" height="9" rx="4.5" transform="translate(1579 2627)" fill="rgba(183,194,206,0.55)"/>
    </g>
    <g transform="translate(-1469 -2517)">
      <rect id="Rectangle_43-36" data-name="Rectangle 43" width="9" height="9" rx="4.5" transform="translate(1579 2627)" fill="rgba(183,194,206,0.55)"/>
    </g>
  </g>
</svg>
