<svg xmlns="http://www.w3.org/2000/svg" width="34.441" height="37.41" viewBox="0 0 34.441 37.41">
  <g id="calendar" transform="translate(-6 -1)">
    <path id="Path_135" data-name="Path 135" d="M38.691,14a2.978,2.978,0,0,1,2.969,2.969V43.691a2.978,2.978,0,0,1-2.969,2.969H11.969A2.978,2.978,0,0,1,9,43.691V16.969A2.978,2.978,0,0,1,11.969,14Z" transform="translate(-2.109 -9.14)" fill="#fff"/>
    <path id="Path_136" data-name="Path 136" d="M42.829,28.019H38.375a.875.875,0,0,1-.8-.5.864.864,0,0,1,.089-.92l2.227-2.969a10.4,10.4,0,0,0,2.049-6.146,1.336,1.336,0,1,0-2.672,0v1.93a.891.891,0,1,1-1.781,0v-1.93a3.118,3.118,0,1,1,6.235,0,12.174,12.174,0,0,1-2.4,7.215l-1.158,1.544h2.672a.891.891,0,1,1,0,1.781ZM38.375,8.72A2.382,2.382,0,0,1,36,6.344V3.375a2.375,2.375,0,0,1,4.751,0v.594h6.532a.891.891,0,0,1,0,1.781H39.86a.875.875,0,0,1-.891-.891V3.375a.594.594,0,0,0-1.188,0V6.344a.6.6,0,0,0,.594.594.891.891,0,1,1,0,1.781Z" transform="translate(-21.093)" fill="#444b54"/>
    <path id="Path_137" data-name="Path 137" d="M36.581,38.41H9.86A3.852,3.852,0,0,1,6,34.551V7.829a3.852,3.852,0,0,1,3.86-3.86h2.969a.891.891,0,1,1,0,1.781H9.86A2.066,2.066,0,0,0,7.781,7.829V34.551A2.066,2.066,0,0,0,9.86,36.629H36.581a2.066,2.066,0,0,0,2.078-2.078V7.829a2.066,2.066,0,0,0-2.078-2.078H32.128a.875.875,0,0,1-.891-.891V3.375a.594.594,0,1,0-1.188,0V6.344a.6.6,0,0,0,.594.594.891.891,0,1,1,0,1.781,2.382,2.382,0,0,1-2.375-2.375V3.375a2.375,2.375,0,0,1,4.751,0v.594h3.563a3.852,3.852,0,0,1,3.86,3.86V34.551A3.852,3.852,0,0,1,36.581,38.41Z" fill="#103a55"/>
    <path id="Path_138" data-name="Path 138" d="M69.118,59.658A3.117,3.117,0,0,1,66,56.54a.891.891,0,0,1,1.781,0,1.336,1.336,0,1,0,2.672,0V53.868a1.331,1.331,0,0,0-1.336-1.336H66.891A.875.875,0,0,1,66,51.641V46.891A.875.875,0,0,1,66.891,46h3.266a.891.891,0,1,1,0,1.781H67.781v2.969h1.336a3.117,3.117,0,0,1,3.118,3.118V56.54A3.117,3.117,0,0,1,69.118,59.658Z" transform="translate(-42.186 -31.639)" fill="#444b54"/>
  </g>
</svg>
