<svg xmlns="http://www.w3.org/2000/svg" width="30" height="28" viewBox="0 0 42 40.19">
  <g id="category" transform="translate(-6 -11)">
    <path id="Path_122" data-name="Path 122" d="M19,50.207V17.621A3.631,3.631,0,0,1,22.621,14H47.966a7.263,7.263,0,0,1,7.241,7.241V50.207a1.793,1.793,0,0,1-1.81,1.81H20.81A1.793,1.793,0,0,1,19,50.207Z" transform="translate(-8.293 -1.914)" fill="#fff"/>
    <path id="Path_123" data-name="Path 123" d="M106.241,21.241h-3.621A3.631,3.631,0,0,1,99,17.621V14h0a7.263,7.263,0,0,1,7.241,7.241Z" transform="translate(-59.328 -1.914)" fill="#fff"/>
    <path id="Path_124" data-name="Path 124" d="M54.379,19.328v-.145A8.284,8.284,0,0,0,46.052,11H20.707A4.7,4.7,0,0,0,16,15.707v2.534a1.086,1.086,0,1,0,2.172,0V15.707a2.519,2.519,0,0,1,2.534-2.534H44.966v2.534a4.7,4.7,0,0,0,4.707,4.707h3.621a1.179,1.179,0,0,0,1.014-.652A1.817,1.817,0,0,0,54.379,19.328Zm-7.241-3.621V13.281a6.138,6.138,0,0,1,4.96,4.96H49.672A2.519,2.519,0,0,1,47.138,15.707Z" transform="translate(-6.379)" fill="#444b54"/>
    <path id="Path_125" data-name="Path 125" d="M42.2,48.707H30.072a6.037,6.037,0,0,1-4.779-2.353h0A6.037,6.037,0,0,0,20.514,44h-9.7A1.793,1.793,0,0,0,9,45.81V69.345a1.793,1.793,0,0,0,1.81,1.81h33.2V50.517A1.816,1.816,0,0,0,42.2,48.707Z" transform="translate(-1.914 -21.052)" fill="#fff"/>
    <path id="Path_126" data-name="Path 126" d="M39,110.81a1.793,1.793,0,0,0,1.81,1.81H63.15V109H40.81A1.793,1.793,0,0,0,39,110.81Z" transform="translate(-21.052 -62.517)" fill="#fe1f4c"/>
    <path id="Path_127" data-name="Path 127" d="M48,45.6V43.172a1.067,1.067,0,0,0-1.086-1.086h0a1.089,1.089,0,0,0-1.086,1.086V66.816a1.34,1.34,0,1,1-2.679,0V48.6a2.905,2.905,0,0,0-2.9-2.9H28.159a4.958,4.958,0,0,1-3.91-1.919A7.171,7.171,0,0,0,18.6,41H8.9A2.905,2.905,0,0,0,6,43.9V67.431a2.905,2.905,0,0,0,2.9,2.9H44.488A3.515,3.515,0,0,0,48,66.816V45.6ZM8.9,68.155a.726.726,0,0,1-.724-.724V43.9a.726.726,0,0,1,.724-.724h9.7a4.958,4.958,0,0,1,3.91,1.919,7.171,7.171,0,0,0,5.648,2.788H40.288a.726.726,0,0,1,.724.724V66.816a4.186,4.186,0,0,0,.253,1.34Z" transform="translate(0 -19.138)" fill="#444b54"/>
  </g>
</svg>
