<svg xmlns="http://www.w3.org/2000/svg" width="36" height="36" viewBox="0 0 36 36">
  <g id="circled_play" transform="translate(-11 -11)">
    <path id="Path_94" data-name="Path 94" d="M30.981,14A16.981,16.981,0,1,0,47.962,30.981,16.981,16.981,0,0,0,30.981,14Z" transform="translate(-1.981 -1.981)" fill="#fff"/>
    <path id="Path_95" data-name="Path 95" d="M29,47A18,18,0,1,1,47,29,18.031,18.031,0,0,1,29,47Zm0-33.962A15.962,15.962,0,1,0,44.962,29,15.987,15.987,0,0,0,29,13.038Z" fill="#103a55"/>
    <path id="Path_96" data-name="Path 96" d="M54.519,58.243a.958.958,0,0,1-.509-.136,1.013,1.013,0,0,1-.509-.883V47.035a1.013,1.013,0,0,1,.509-.883,1.083,1.083,0,0,1,1.019,0l8.83,5.094a1.02,1.02,0,0,1,0,1.766l-8.83,5.094A.958.958,0,0,1,54.519,58.243ZM55.538,48.8v6.657l5.774-3.328Z" transform="translate(-28.066 -23.13)" fill="#fe1f4c"/>
  </g>
</svg>
