<svg xmlns="http://www.w3.org/2000/svg" width="125.009" height="124.293" viewBox="0 0 125.009 124.293">
  <g id="confetti" transform="translate(-1.291 -1.807)">
    <path id="Path_83" data-name="Path 83" d="M4.4,119.2,27.5,49.8c.4-1.2,51.6,49.6,50.6,49.9L8.2,123A3.04,3.04,0,0,1,4.4,119.2Z" fill="#fff"/>
    <path id="Path_84" data-name="Path 84" d="M61.6,54.4a2.768,2.768,0,0,1-1.3-.3,2.878,2.878,0,0,1-1.3-4,49.351,49.351,0,0,0,0-44,3.047,3.047,0,0,1,1.3-4,3.047,3.047,0,0,1,4,1.3,55.5,55.5,0,0,1,0,49.3A3.055,3.055,0,0,1,61.6,54.4ZM45,44.9a2.971,2.971,0,0,1-3-2.8A13.612,13.612,0,0,0,37.8,33,2.97,2.97,0,1,1,42,28.8a20.107,20.107,0,0,1,5.9,13A2.954,2.954,0,0,1,45.1,45,.1.1,0,0,0,45,44.9ZM24.7,24a3,3,0,0,1,0-6h0a3,3,0,1,1,0,6Zm73.5,82.4a3,3,0,0,1,0-6h0a3,3,0,1,1,0,6ZM84.8,19.5a3,3,0,0,1,0-6h0a2.946,2.946,0,0,1,3,3A3.009,3.009,0,0,1,84.8,19.5ZM53.4,29.4a3,3,0,0,1,0-6h0a2.946,2.946,0,0,1,3,3A3.009,3.009,0,0,1,53.4,29.4ZM82.1,52.7a3,3,0,0,1,0-6h0a2.946,2.946,0,0,1,3,3A3.009,3.009,0,0,1,82.1,52.7Zm20.6-6.3a3,3,0,0,1,0-6h0a2.946,2.946,0,0,1,3,3A3.009,3.009,0,0,1,102.7,46.4Zm20.6,38.5a3,3,0,0,1,0-6h0a2.946,2.946,0,0,1,3,3A3.009,3.009,0,0,1,123.3,84.9Zm-27,5.3a2.878,2.878,0,0,1-2.1-.9,14.833,14.833,0,0,0-9.1-4.2,3.007,3.007,0,0,1,.4-6,20.611,20.611,0,0,1,13,5.9,2.9,2.9,0,0,1,0,4.2A3.151,3.151,0,0,1,96.3,90.2Z" fill="#444b54"/>
    <path id="Path_85" data-name="Path 85" d="M123.7,62.8a55.174,55.174,0,0,0-49.3.1c-.2.1-4,2-8.8,4.7h0c-.9-1-2.8-.9-3.8-1.9-.3-.3-2-1.1-2-1.7l1.4-.8A94.987,94.987,0,0,0,42.1,48.3c-7.6-4.3-13-5-16.1-2A6.19,6.19,0,0,0,24.2,50L1.6,118.2A5.941,5.941,0,0,0,3,124.3a6.174,6.174,0,0,0,4.2,1.8,6.279,6.279,0,0,0,1.9-.3l67.4-22.5a6.86,6.86,0,0,0,4.6-1.8c3-3,2.4-8.4-2-16.1a87.907,87.907,0,0,0-9.5-13.3c4.2-2.3,7.3-3.9,7.4-4a49.351,49.351,0,0,1,44,0,3.047,3.047,0,0,0,4-1.3A2.987,2.987,0,0,0,123.7,62.8ZM7.3,120.1,27.1,60.6c.3.6.6,1.1.9,1.7C31.6,68.7,37.4,76,44.4,83S58.7,95.8,65.1,99.4c.5.3,1,.5,1.5.8Z" fill="#444b54"/>
    <path id="Path_86" data-name="Path 86" d="M61.3,63.2c-.7.4-1.3.8-2,1.2a3.062,3.062,0,0,0-1.1,4.1A3.013,3.013,0,0,0,60.8,70a2.822,2.822,0,0,0,1.5-.4c1.1-.7,2.3-1.3,3.3-1.9-.9-1-1.8-1.9-2.8-2.9C62.3,64.2,61.8,63.7,61.3,63.2Z" fill="#fff"/>
  </g>
</svg>
