<svg xmlns="http://www.w3.org/2000/svg" width="87.835" height="78" viewBox="0 0 87.835 78">
  <g id="cup" transform="translate(-26 -25.8)">
    <path id="Path_89" data-name="Path 89" d="M49,44.5a2.946,2.946,0,0,1-3-3V38.8a3,3,0,0,1,6,0v2.7A2.946,2.946,0,0,1,49,44.5Zm10,0a2.946,2.946,0,0,1-3-3V28.8a3,3,0,1,1,6,0V41.5A2.946,2.946,0,0,1,59,44.5Zm10,0a2.946,2.946,0,0,1-3-3V33.8a3,3,0,0,1,6,0v7.7A2.946,2.946,0,0,1,69,44.5Z" fill="#454b54"/>
    <path id="Path_90" data-name="Path 90" d="M94.5,73.1c0,11-5.4,18.9-13.7,23.4l-1.3,4.4H44l-1.3-4.4C34.4,91.9,29,84.1,29,73.1V60.4H94.5V73.1" fill="#fff"/>
    <path id="Path_91" data-name="Path 91" d="M94.5,60.4h-14V73.1c0,11-5.4,18.9-13.7,23.4l-1.3,4.4h14l1.3-4.4C89.1,92,94.5,84.1,94.5,73.1V60.4" fill="#e5e5e5"/>
    <path id="Path_92" data-name="Path 92" d="M79.5,103.8H44a3.13,3.13,0,0,1-2.9-2.1l-1-3.2C31,93,26,84.1,26,73.1V60.4a2.946,2.946,0,0,1,3-3H94.5a2.946,2.946,0,0,1,3,3V73.1c0,11-5,20-14.2,25.4l-.9,3.2A3.13,3.13,0,0,1,79.5,103.8Zm-33.3-6h31l.6-2.2a2.685,2.685,0,0,1,1.5-1.8c5.5-3,12.2-9,12.2-20.7V63.4H32v9.7c0,11.7,6.6,17.7,12.1,20.7a2.827,2.827,0,0,1,1.4,1.8Z" fill="#454b54"/>
    <path id="Path_93" data-name="Path 93" d="M87.6,94.3a3,3,0,0,1-1.1-5.8c5.2-2.1,12.4-4.5,17.4-6.1a5.609,5.609,0,0,0,2.6-8.9,5.453,5.453,0,0,0-4.2-2H94.6a3,3,0,0,1,0-6h7.7a11.508,11.508,0,0,1,8.8,4.1,11.789,11.789,0,0,1,2.6,9.4,11.553,11.553,0,0,1-7.8,9.1c-5,1.6-12,3.9-17,6A10.5,10.5,0,0,1,87.6,94.3Z" fill="#454b54"/>
  </g>
</svg>
