<svg xmlns="http://www.w3.org/2000/svg" width="60" height="60" viewBox="0 0 112 120">
  <g id="customers" transform="translate(-8 -7)">
    <path id="Path_60" data-name="Path 60" d="M82,50A10.029,10.029,0,0,0,72,40H54.8a10.03,10.03,0,0,0-9.9,8.8L41,80H52v44H76V80h0a6.018,6.018,0,0,0,6-6Z" fill="#fff"/>
    <path id="Path_61" data-name="Path 61" d="M37,46H21A10.029,10.029,0,0,0,11,56V78a8.039,8.039,0,0,0,6,7.7V118a6.018,6.018,0,0,0,6,6H35a6.018,6.018,0,0,0,6-6V86h6V56A10.029,10.029,0,0,0,37,46ZM29,16A10,10,0,1,0,39,26,10,10,0,0,0,29,16Zm78,30H91A10.029,10.029,0,0,0,81,56V78a8.039,8.039,0,0,0,6,7.7v32a6.025,6.025,0,0,0,5.8,6.2c3.4.1,9,.1,12.4,0a6.156,6.156,0,0,0,5.8-6.2V86h0a6.018,6.018,0,0,0,6-6V56A10.029,10.029,0,0,0,107,46ZM99,16a10,10,0,1,0,10,10A10,10,0,0,0,99,16Z" fill="#fff"/>
    <path id="Path_62" data-name="Path 62" d="M17,127a2.946,2.946,0,0,1-3-3V87.8A10.99,10.99,0,0,1,8,78V56A12.974,12.974,0,0,1,21,43H37a3,3,0,0,1,0,6H21a6.957,6.957,0,0,0-7,7V78a4.841,4.841,0,0,0,3.7,4.8A3,3,0,0,1,20,85.7V124A2.946,2.946,0,0,1,17,127ZM29,39A13,13,0,1,1,42,26,12.974,12.974,0,0,1,29,39Zm0-20a7,7,0,1,0,7,7A6.957,6.957,0,0,0,29,19ZM87,127a2.946,2.946,0,0,1-3-3V95.7a3,3,0,0,1,6,0V124A2.946,2.946,0,0,1,87,127Zm24-.3a2.946,2.946,0,0,1-3-3V86a2.946,2.946,0,0,1,3-3,2.946,2.946,0,0,0,3-3V56a6.957,6.957,0,0,0-7-7H91a3,3,0,0,1,0-6h16a12.974,12.974,0,0,1,13,13V80a9.1,9.1,0,0,1-6,8.5v35.3A2.925,2.925,0,0,1,111,126.7ZM99,39a13,13,0,1,1,13-13A12.974,12.974,0,0,1,99,39Zm0-20a7,7,0,1,0,7,7A6.957,6.957,0,0,0,99,19Z" fill="#fe1f4c"/>
    <path id="Path_63" data-name="Path 63" d="M41,107a2.946,2.946,0,0,1-3-3V90a3,3,0,0,1,6,0v14A2.946,2.946,0,0,1,41,107Z" fill="#444b54"/>
    <path id="Path_64" data-name="Path 64" d="M64,10A10,10,0,1,0,74,20,10,10,0,0,0,64,10Z" fill="#fff"/>
    <path id="Path_65" data-name="Path 65" d="M64,33A13,13,0,1,1,77,20,12.974,12.974,0,0,1,64,33Zm0-20a7,7,0,1,0,7,7A6.957,6.957,0,0,0,64,13ZM95,121H79V82.5A9,9,0,0,0,85,74V56c0-4.5-.9-19-13-19H54.8A13.048,13.048,0,0,0,41.9,48.4L38,79.6a2.971,2.971,0,1,0,5.9.7l3.9-31.2A6.924,6.924,0,0,1,54.7,43H72c6.1,0,7,8.1,7,13V74a2.946,2.946,0,0,1-3,3,2.946,2.946,0,0,0-3,3v41H67V86a3,3,0,0,0-6,0v35H55V80a3,3,0,0,0-6,0v41H33a3,3,0,0,0,0,6H95a3,3,0,0,0,0-6Z" fill="#444b54"/>
  </g>
</svg>
