<svg xmlns="http://www.w3.org/2000/svg" width="23" height="11" viewBox="0 0 25.639 14.781">
  <path id="icons8_eye" d="M13,6.156A15.144,15.144,0,0,0,.469,12.813a1.682,1.682,0,0,0,.469,2.344,1.664,1.664,0,0,0,.938.313,1.751,1.751,0,0,0,1.438-.75c.105-.156.234-.289.344-.437a9.886,9.886,0,0,0,18.688,0c.109.148.238.281.344.438a1.711,1.711,0,0,0,2.375.438,1.683,1.683,0,0,0,.469-2.344A15.13,15.13,0,0,0,13,6.156Zm3.969,4.094a11.625,11.625,0,0,1,4.406,2.875,8.625,8.625,0,0,1-16.75,0,11.718,11.718,0,0,1,4.406-2.844A4.751,4.751,0,0,0,8.188,13a4.813,4.813,0,1,0,8.781-2.75Z" transform="translate(-0.18 -6.156)" fill="#b7c2ce"/>
</svg>
