<svg xmlns="http://www.w3.org/2000/svg" width="111" height="86.3" viewBox="0 0 111 86.3">
  <g id="icons8_instagram" transform="translate(-16 -26)">
    <path id="Path_45" data-name="Path 45" d="M86.2,109H41.8A17.839,17.839,0,0,1,24,91.2V46.8A17.839,17.839,0,0,1,41.8,29H86.2A17.839,17.839,0,0,1,104,46.8V91.2A17.839,17.839,0,0,1,86.2,109Z" fill="#fe1f4c"/>
    <path id="Path_46" data-name="Path 46" d="M24,46.8V58h80V46.8A17.839,17.839,0,0,0,86.2,29H41.8A17.839,17.839,0,0,0,24,46.8Z" fill="#fff"/>
    <path id="Path_47" data-name="Path 47" d="M86.2,112H41.8A20.784,20.784,0,0,1,21,91.2V46.8A20.784,20.784,0,0,1,41.8,26H86.2A20.784,20.784,0,0,1,107,46.8V91.2A20.784,20.784,0,0,1,86.2,112ZM41.8,32A14.767,14.767,0,0,0,27,46.8V91.2A14.831,14.831,0,0,0,41.8,106H86.2A14.831,14.831,0,0,0,101,91.2V46.8A14.831,14.831,0,0,0,86.2,32Z" fill="#444b54"/>
    <path id="Path_48" data-name="Path 48" d="M64,54A15,15,0,1,0,79,69,15,15,0,0,0,64,54Z" fill="#fff"/>
    <path id="Path_49" data-name="Path 49" d="M64,87A18.053,18.053,0,0,1,46,69a3,3,0,0,1,6,0A12,12,0,1,0,64,57a3,3,0,0,1,0-6,18,18,0,0,1,0,36Z" fill="#444b54"/>
    <path id="Path_50" data-name="Path 50" d="M53.8,60.9a1.268,1.268,0,0,1-.6-.1c-.2-.1-.4-.1-.6-.2a2.186,2.186,0,0,1-.5-.3,1.756,1.756,0,0,1-.5-.4,2.181,2.181,0,0,1-.4-.5c-.1-.2-.2-.3-.3-.5s-.1-.4-.2-.6c0-.2-.1-.4-.1-.6a1.268,1.268,0,0,1,.1-.6,1.421,1.421,0,0,1,.2-.6,2.186,2.186,0,0,1,.3-.5,1.756,1.756,0,0,1,.4-.5,2.181,2.181,0,0,1,.5-.4c.2-.1.3-.2.5-.3s.4-.1.6-.2a2.438,2.438,0,0,1,1.2,0,1.421,1.421,0,0,1,.6.2,2.186,2.186,0,0,1,.5.3.781.781,0,0,1,.4.4,2.181,2.181,0,0,1,.4.5c.1.2.2.3.3.5s.1.4.2.6c0,.2.1.4.1.6a1.268,1.268,0,0,1-.1.6,1.421,1.421,0,0,1-.2.6,2.186,2.186,0,0,1-.3.5,1.756,1.756,0,0,1-.4.5l-.4.4c-.2.1-.3.2-.5.3s-.4.1-.6.2A1.268,1.268,0,0,1,53.8,60.9ZM86,43a4,4,0,1,0,4,4A4,4,0,0,0,86,43ZM19,112.3a3.009,3.009,0,0,1-3-3,2.946,2.946,0,0,1,3-3l90-.5h0a3.009,3.009,0,0,1,3,3,2.946,2.946,0,0,1-3,3l-90,.5Zm105-.5a2.723,2.723,0,0,1-2.1-.9,2.181,2.181,0,0,1-.4-.5c-.1-.2-.2-.3-.3-.5s-.1-.4-.2-.6c0-.2-.1-.4-.1-.6a1.268,1.268,0,0,1,.1-.6,1.421,1.421,0,0,1,.2-.6,2.186,2.186,0,0,1,.3-.5,1.756,1.756,0,0,1,.4-.5l.4-.4c.2-.1.3-.2.5-.3s.4-.1.6-.2a2.438,2.438,0,0,1,1.2,0,1.421,1.421,0,0,1,.6.2,2.186,2.186,0,0,1,.5.3.781.781,0,0,1,.4.4,2.878,2.878,0,0,1,.9,2.1,1.268,1.268,0,0,1-.1.6,1.421,1.421,0,0,1-.2.6,2.186,2.186,0,0,1-.3.5,1.756,1.756,0,0,1-.4.5A2.221,2.221,0,0,1,124,111.8Z" fill="#444b54"/>
  </g>
</svg>
