<svg xmlns="http://www.w3.org/2000/svg" width="49.488" height="49.292" viewBox="0 0 49.488 49.292">
  <g id="lang" transform="translate(-1 -1)">
    <path id="Path_20" data-name="Path 20" d="M75.162,30.34a6.725,6.725,0,0,1-4.734-1.956h0a6.657,6.657,0,0,1-4.734,1.956H48.912A3.924,3.924,0,0,1,45,26.428V4.912A3.924,3.924,0,0,1,48.912,1H70.428A3.924,3.924,0,0,1,74.34,4.912V22.2a8.706,8.706,0,0,0,2.582,6.142A1.189,1.189,0,0,1,76.1,30.38h-.939Z" transform="translate(-26.787)" fill="#444b54"/>
    <path id="Path_21" data-name="Path 21" d="M80.223,26.392,74.355,10.743a1.179,1.179,0,0,0-2.191,0L67,24.083h9.858l1.174,3.169a1.179,1.179,0,0,0,1.1.743,1.664,1.664,0,0,0,.43-.078A1.186,1.186,0,0,0,80.223,26.392ZM70.56,21.736l2.7-7.237,2.7,7.237Z" transform="translate(-40.18 -5.479)" fill="#fff"/>
    <path id="Path_22" data-name="Path 22" d="M105.174,121a1.174,1.174,0,1,0,1.174,1.174A1.174,1.174,0,0,0,105.174,121Z" transform="translate(-62.706 -73.055)" fill="#3f4a54"/>
    <path id="Path_23" data-name="Path 23" d="M39.209,78.34H34.162a6.725,6.725,0,0,1-4.734-1.956h0a6.657,6.657,0,0,1-4.734,1.956H7.912A3.924,3.924,0,0,1,4,74.428V52.912A3.924,3.924,0,0,1,7.912,49H29.428a3.924,3.924,0,0,1,3.912,3.912V70.2a8.576,8.576,0,0,0,5.868,8.137Z" transform="translate(-1.826 -29.222)" fill="#fff"/>
    <path id="Path_24" data-name="Path 24" d="M33.448,69.548a.137.137,0,0,1,.039-.078,1.2,1.2,0,0,0-.822-1.447,1.166,1.166,0,0,0-1.369.626c-.117-.039-.235-.039-.352-.078a10.579,10.579,0,0,0-3.99.078c0-.9.039-1.721.078-2.465h8.1a1.174,1.174,0,1,0,0-2.347h-7.9c.156-1.134.274-1.8.274-1.8a1.159,1.159,0,1,0-2.269-.469,20.934,20.934,0,0,0-.352,2.308h-3.56a1.174,1.174,0,1,0,0,2.347h3.364c-.078.939-.078,2.034-.078,3.169a10.955,10.955,0,0,0-2.386,1.33,7.019,7.019,0,0,0-2.973,4.655,5.074,5.074,0,0,0,5.086,5.633,5.673,5.673,0,0,0,3.364-1.1c2.386-1.76,4.069-5.477,4.968-7.941a3.95,3.95,0,0,1,.509.626c1.526,2.465.352,3.912-1.76,6.025a3.687,3.687,0,0,0-.391.391,1.162,1.162,0,1,0,1.643,1.643l.352-.352c1.76-1.76,4.773-4.694,2.113-8.919A4.765,4.765,0,0,0,33.448,69.548ZM22.182,77.607a2.6,2.6,0,0,1-.626-2.034,4.845,4.845,0,0,1,2.034-3.051,10.2,10.2,0,0,1,1.1-.665A29.14,29.14,0,0,0,25.9,78.194,2.938,2.938,0,0,1,22.182,77.607Zm5.633-1.252a28.8,28.8,0,0,1-.822-5.32,10.458,10.458,0,0,1,2.152-.274,7.316,7.316,0,0,1,1.33.117h.078A23.14,23.14,0,0,1,27.815,76.355Z" transform="translate(-11.089 -36.313)" fill="#444b54"/>
    <path id="Path_25" data-name="Path 25" d="M37.3,77.688H32.3a7.885,7.885,0,0,1-5.516-2.269,1.2,1.2,0,0,1-.235-1.447,1.182,1.182,0,0,1,1.917-.235A5.19,5.19,0,0,0,32.375,75.3h.861a9.82,9.82,0,0,1-2.895-6.963V51.086A2.722,2.722,0,0,0,27.6,48.347H6.086a2.722,2.722,0,0,0-2.738,2.738V72.6A2.722,2.722,0,0,0,6.086,75.34h16.7a1.239,1.239,0,0,1,1.252,1.134,1.162,1.162,0,0,1-1.174,1.213H6.086A5.076,5.076,0,0,1,1,72.6V51.086A5.076,5.076,0,0,1,6.086,46H26.82s5.868,2.738,5.868,2.543V68.377a7.415,7.415,0,0,0,5.047,7.042,1.163,1.163,0,0,1-.43,2.269Z" transform="translate(0 -27.396)" fill="#444b54"/>
  </g>
</svg>
