<svg xmlns="http://www.w3.org/2000/svg" width="82.456" height="99.066" viewBox="0 0 82.456 99.066">
  <g id="money_bag" transform="translate(-22.856 -14.434)">
    <path id="Path_107" data-name="Path 107" d="M100.9,103.5,98,100.6v-26A34.121,34.121,0,0,0,74.5,42.2a2.354,2.354,0,0,0-.8-.2,5.049,5.049,0,0,1-3.1-7.9l8.9-11.9h0a27.754,27.754,0,0,0-30.3-.4l-.7.4,9.3,11.6a5.021,5.021,0,0,1-2.9,8.1c-.5.1-1,.2-1.4.3A33.867,33.867,0,0,0,30,74.5v26l-2.9,2.9a4.155,4.155,0,0,0,2.9,7.1H98A4.065,4.065,0,0,0,100.9,103.5Z" fill="#fff"/>
    <path id="Path_108" data-name="Path 108" d="M98,113.5H30a7.072,7.072,0,0,1-6.6-4.4,7.252,7.252,0,0,1,1.5-7.8l2-2.1V74.5A36.951,36.951,0,0,1,52.5,39.3,3,3,0,1,1,54.4,45,31.042,31.042,0,0,0,33,74.5v26a2.723,2.723,0,0,1-.9,2.1l-2.9,2.9c-.5.5-.4,1-.2,1.2a1.062,1.062,0,0,0,1.1.7h68a1.164,1.164,0,0,0,1.1-.7,1.113,1.113,0,0,0-.2-1.2l-2.9-2.9a2.878,2.878,0,0,1-.9-2.1v-26A30.949,30.949,0,0,0,73.8,45l-.8-.2a7.921,7.921,0,0,1-5.5-5.3A8.311,8.311,0,0,1,68.7,32l6.7-8.9a25,25,0,0,0-22-.1l5.4,6.4a2.983,2.983,0,0,1-4.6,3.8L46.5,24a3,3,0,0,1-.7-2.4,2.79,2.79,0,0,1,1.4-2.1l.7-.4a31.012,31.012,0,0,1,33.5.5,2.969,2.969,0,0,1,1.3,2,3.222,3.222,0,0,1-.6,2.3L73.4,35.5a2.224,2.224,0,0,0-.3,2,2.282,2.282,0,0,0,1.5,1.4l.9.3h.1a36.951,36.951,0,0,1,25.6,35.2V99.1l2,2.1a6.867,6.867,0,0,1,1.5,7.8A7.248,7.248,0,0,1,98,113.5Z" fill="#3f4a54"/>
    <path id="Path_109" data-name="Path 109" d="M48.5,25.2A2.959,2.959,0,0,1,47,19.7l.7-.4a31.012,31.012,0,0,1,33.5.5,3.023,3.023,0,1,1-3.4,5,24.913,24.913,0,0,0-27-.4l-.7.4A4.707,4.707,0,0,1,48.5,25.2Zm41,13.1h-8a3,3,0,0,1,0-6h8a3,3,0,0,1,0,6Z" fill="#3f4a54"/>
    <g id="Group_38" data-name="Group 38">
      <path id="Path_110" data-name="Path 110" d="M67.8,76.4l-6.2-1.5a4.06,4.06,0,0,1-3.1-4,4.225,4.225,0,0,1,4.2-4.2h3a3.8,3.8,0,0,1,3.8,3.8,3,3,0,0,0,6,0A9.737,9.737,0,0,0,67,60.8V59.5a3,3,0,0,0-6,0v1.4a10.172,10.172,0,0,0-.8,19.9l6.2,1.5a4.06,4.06,0,0,1,3.1,4,4.225,4.225,0,0,1-4.2,4.2h-3a3.8,3.8,0,0,1-3.8-3.8,3,3,0,0,0-6,0A9.737,9.737,0,0,0,61,96.4v1.3a3,3,0,0,0,6,0V96.3a10.172,10.172,0,0,0,.8-19.9Z" fill="#9eb9d3"/>
    </g>
  </g>
</svg>
