<svg xmlns="http://www.w3.org/2000/svg" width="50" height="50" viewBox="0 0 106 106">
  <g id="icons8_next_page" transform="translate(-11 -11)">
    <path id="Path_70" data-name="Path 70" d="M64,14a50,50,0,1,0,50,50A50,50,0,0,0,64,14Z" fill="#fff"/>
    <path id="Path_71" data-name="Path 71" d="M64,117a53,53,0,1,1,53-53A53.091,53.091,0,0,1,64,117ZM64,17a47,47,0,1,0,47,47A47.074,47.074,0,0,0,64,17Z" fill="#444b54"/>
    <path id="Path_72" data-name="Path 72" d="M76.5,67a3,3,0,0,1-1.8-.6l-20-15a3,3,0,1,1,3.6-4.8l20,15a3.022,3.022,0,0,1,.6,4.2A2.982,2.982,0,0,1,76.5,67Z" fill="#fe1f4c"/>
    <path id="Path_73" data-name="Path 73" d="M56.5,82a2.982,2.982,0,0,1-2.4-1.2,3.022,3.022,0,0,1,.6-4.2l20-15a3,3,0,1,1,3.6,4.8l-20,15A3,3,0,0,1,56.5,82Z" fill="#fe1f4c"/>
  </g>
</svg>
