<svg xmlns="http://www.w3.org/2000/svg" width="115.032" height="116.602" viewBox="0 0 115.032 116.602">
  <g id="phone_message" transform="translate(-4.07 -3.398)">
    <path id="Path_31" data-name="Path 31" d="M62.4,83.8a5.093,5.093,0,0,0-6.1-.5l-1.8,1.1-5.2,3.3a4.214,4.214,0,0,1-5.8-1L36,75,28.6,63.4a4.194,4.194,0,0,1,1.5-5.7l5.2-3.3,1.8-1.1a5,5,0,0,0,2.2-5.7L31.3,26a4.673,4.673,0,0,0-6.6-2.3l-.6.3-9.7,5.2c-4.6,2.3-7.6,7-7.3,11.8A94.381,94.381,0,0,0,21.3,84.4,95.9,95.9,0,0,0,55,115.7a12.729,12.729,0,0,0,13.8-1.6l8.8-6.7.5-.4a4.528,4.528,0,0,0,.6-6.9Z" fill="#fe1f4c"/>
    <path id="Path_32" data-name="Path 32" d="M32.7,29.8,31.3,26a4.673,4.673,0,0,0-6.6-2.3l-.6.3-9.7,5.2c-4.6,2.3-7.6,7-7.3,11.8A93.431,93.431,0,0,0,11,61.9C13.6,52,19.4,39.1,32.7,29.8Z" fill="#fff"/>
    <path id="Path_33" data-name="Path 33" d="M60.5,120h0a14.982,14.982,0,0,1-6.9-1.7A99.541,99.541,0,0,1,18.8,86,97.334,97.334,0,0,1,4.1,41.2,15.6,15.6,0,0,1,13,26.5L23.4,21a7.577,7.577,0,0,1,3.6-.8A7.512,7.512,0,0,1,34.1,25L42,46.5a7.948,7.948,0,0,1-3.4,9.3l-7,4.5a2.016,2.016,0,0,0-.7.9.661.661,0,0,0,.1.6L46,85.2a1.033,1.033,0,0,0,.8.4,1.009,1.009,0,0,0,.8-.3l7-4.5a8.12,8.12,0,0,1,4.5-1.3,7.553,7.553,0,0,1,5.4,2.2L80.8,97.9a7.163,7.163,0,0,1,2.1,5.6,7.922,7.922,0,0,1-3,5.8l-.5.4-8.8,6.8A16.491,16.491,0,0,1,60.5,120ZM27,26.2a3.553,3.553,0,0,0-1,.2l-.6.3-9.7,5.1a9.837,9.837,0,0,0-5.7,9,91.029,91.029,0,0,0,13.7,42A93.131,93.131,0,0,0,56.3,113a8.04,8.04,0,0,0,4.1,1,10.049,10.049,0,0,0,6.4-2.3l9.3-7.2a1.9,1.9,0,0,0,.8-1.5,1.1,1.1,0,0,0-.4-1L60.3,85.9a2.081,2.081,0,0,0-2.4-.1l-7,4.5a7.3,7.3,0,0,1-4.1,1.2A6.851,6.851,0,0,1,41,88.4L26,65a6.516,6.516,0,0,1-.9-5.1,7.5,7.5,0,0,1,3.3-4.7l7-4.5a1.874,1.874,0,0,0,.9-2.2L28.5,27A1.476,1.476,0,0,0,27,26.2Z" fill="#444b54"/>
    <path id="Path_34" data-name="Path 34" d="M116,36.9c-.2,16.5-14.1,29.5-30.5,29.5H59.1a2.606,2.606,0,0,1-2.6-2.7V37c0-16.5,13-30.4,29.3-30.7A30.013,30.013,0,0,1,116,36.9Z" fill="#fff"/>
    <path id="Path_35" data-name="Path 35" d="M85.6,69.4H59.1a5.613,5.613,0,0,1-5.6-5.7V37.1C53.5,18.8,68,3.7,85.8,3.4A32.618,32.618,0,0,1,109.4,13a32.991,32.991,0,0,1,9.7,23.9C118.8,54.8,103.7,69.4,85.6,69.4Zm-26.2-6H85.5c14.9,0,27.3-11.9,27.5-26.6h0a27.017,27.017,0,0,0-7.9-19.6A26.406,26.406,0,0,0,85.8,9.4c-14.5.2-26.4,12.7-26.4,27.7Z" fill="#444b54"/>
    <path id="Path_36" data-name="Path 36" d="M85.6,46.4H72.3a3,3,0,0,1,0-6H85.5a3,3,0,0,1,.1,6Zm12,0h-.2a3,3,0,0,1,0-6h.2a2.946,2.946,0,0,1,3,3A3.009,3.009,0,0,1,97.6,46.4Zm1-10H72.1a3,3,0,1,1,0-6H98.6a2.946,2.946,0,0,1,3,3A3.009,3.009,0,0,1,98.6,36.4Z" fill="#fe1f4c"/>
  </g>
</svg>
