<svg xmlns="http://www.w3.org/2000/svg" width="35" height="52" viewBox="0 0 44.177 56.876">
  <g id="icons8_regular_file" transform="translate(-19 -6)">
    <path id="Path_28" data-name="Path 28" d="M22,13.9V58.031a4.917,4.917,0,0,0,4.9,4.9H58.185a4.917,4.917,0,0,0,4.9-4.9l.049-39.225A9.762,9.762,0,0,0,53.38,9H26.9A4.917,4.917,0,0,0,22,13.9Z" transform="translate(-1.529 -1.529)" fill="#fff"/>
    <path id="Path_29" data-name="Path 29" d="M62.044,43.651H40.471a1.471,1.471,0,1,1,0-2.942H62.044a1.471,1.471,0,1,1,0,2.942Zm-4.9-14.709H45.374a1.471,1.471,0,0,1,0-2.942H57.141a1.471,1.471,0,1,1,0,2.942Zm4.9,22.064H40.471a1.471,1.471,0,1,1,0-2.942H62.044a1.471,1.471,0,1,1,0,2.942ZM54.788,58.36H40.569a1.471,1.471,0,0,1,0-2.942H54.788a1.471,1.471,0,0,1,0,2.942Zm7.355,0h-.1a1.471,1.471,0,0,1,0-2.942h.1a1.471,1.471,0,1,1,0,2.942Z" transform="translate(-10.194 -10.194)" fill="#fe1f4c"/>
    <g id="Group_21" data-name="Group 21" transform="translate(19 6)">
      <path id="Path_30" data-name="Path 30" d="M25.374,8.942H50.38v3.432a6.361,6.361,0,0,0,6.374,6.374h4.9a1.6,1.6,0,0,0,1.373-.883,1.306,1.306,0,0,0,.147-.588v-.2a11.37,11.37,0,0,0-3.285-7.8A11.519,11.519,0,0,0,51.851,6H25.374A6.361,6.361,0,0,0,19,12.374V56.5c0,3.579,2.893,6.374,5.393,6.374h32.36a6.467,6.467,0,0,0,4.511-1.863A6.262,6.262,0,0,0,63.128,56.5V23.651a1.445,1.445,0,0,0-1.471-1.471h0a1.445,1.445,0,0,0-1.471,1.471V56.5a3.531,3.531,0,0,1-.981,2.452,3.3,3.3,0,0,1-2.452,1.03H24.393c-.834,0-2.452-1.471-2.452-3.432V12.374A3.411,3.411,0,0,1,25.374,8.942Zm34.665,6.864H56.754a3.411,3.411,0,0,1-3.432-3.432V9.089a8.312,8.312,0,0,1,6.717,6.717Z" transform="translate(-19 -6)" fill="#444b54"/>
    </g>
  </g>
</svg>
