<svg xmlns="http://www.w3.org/2000/svg" width="50" height="50" viewBox="0 0 106 106">
  <g id="icons8_back_to_1" transform="translate(-11 -11)">
    <path id="Path_66" data-name="Path 66" d="M64,14a50,50,0,1,0,50,50A50,50,0,0,0,64,14Z" fill="#fff"/>
    <path id="Path_67" data-name="Path 67" d="M64,117a53,53,0,1,1,53-53A53.091,53.091,0,0,1,64,117ZM64,17a47,47,0,1,0,47,47A47.074,47.074,0,0,0,64,17Z" fill="#444b54"/>
    <path id="Path_68" data-name="Path 68" d="M51.5,67a2.982,2.982,0,0,1-2.4-1.2,3.022,3.022,0,0,1,.6-4.2l20-15a3,3,0,0,1,3.6,4.8l-20,15A3,3,0,0,1,51.5,67Z" fill="#fe1f4c"/>
    <path id="Path_69" data-name="Path 69" d="M71.5,82a3,3,0,0,1-1.8-.6l-20-15a3,3,0,0,1,3.6-4.8l20,15a3.022,3.022,0,0,1,.6,4.2A2.982,2.982,0,0,1,71.5,82Z" fill="#fe1f4c"/>
  </g>
</svg>
