<svg xmlns="http://www.w3.org/2000/svg" width="18.947" height="35.07" viewBox="0 0 18.947 35.07">
  <g id="icons8_electricity" transform="translate(-29.548 -9.251)">
    <path id="Path_7" data-name="Path 7" d="M47.6,32.413,59.723,12.4,56.516,28.436H62.93L50.454,45.5l3.239-13.085" transform="translate(-14.436 -2.139)" fill="#fe1f4c"/>
    <path id="Path_8" data-name="Path 8" d="M32.6,32.413,44.723,12.4,41.516,28.436H47.93L35.454,45.5l3.239-13.085" transform="translate(-2.073 -2.139)" fill="#fff"/>
    <path id="Path_9" data-name="Path 9" d="M39.454,44.321a.988.988,0,0,1-.417-.1.932.932,0,0,1-.513-1.09l3.207-12.829a.957.957,0,1,1,1.86.449L41.571,38.8l8.435-11.578h-4.49a.955.955,0,0,1-.93-1.155l3.207-16.036a.962.962,0,1,1,1.892.353L46.67,25.334H51.9a.973.973,0,0,1,.866.513.934.934,0,0,1-.1.994L40.191,43.9A.756.756,0,0,1,39.454,44.321Z" transform="translate(-6.073)" fill="#3f4a54"/>
    <path id="Path_10" data-name="Path 10" d="M30.527,31.37a1.016,1.016,0,0,1-.513-.128.951.951,0,0,1-.321-1.315L41.816,9.914a.957.957,0,0,1,1.636.994L31.361,30.889A1.042,1.042,0,0,1,30.527,31.37Z" transform="translate(0 -0.134)" fill="#3f4a54"/>
  </g>
</svg>
