<svg xmlns="http://www.w3.org/2000/svg" width="55.426" height="55.38" viewBox="0 0 55.426 55.38">
  <g id="search" transform="translate(-2.786 -2.84)">
    <path id="Path_15" data-name="Path 15" d="M97.437,97.437h0a3.049,3.049,0,0,1-4.25,0l-6.35-6.35a3.049,3.049,0,0,1,0-4.25h0a3.049,3.049,0,0,1,4.25,0l6.35,6.35A3.049,3.049,0,0,1,97.437,97.437Z" transform="translate(-41.594 -41.568)" fill="#fff"/>
    <path id="Path_16" data-name="Path 16" d="M17.5,0A17.5,17.5,0,1,0,35,17.5,17.5,17.5,0,0,0,17.5,0Z" transform="matrix(0.707, -0.707, 0.707, 0.707, 2.786, 27.589)" fill="#fff"/>
    <path id="Path_17" data-name="Path 17" d="M17.5,0A17.5,17.5,0,1,0,35,17.5,17.5,17.5,0,0,0,17.5,0Z" transform="matrix(0.707, -0.707, 0.707, 0.707, 2.786, 27.589)" fill="#fff"/>
    <path id="Path_18" data-name="Path 18" d="M50.8,56.6a1.5,1.5,0,0,1,0-3,12.983,12.983,0,0,0,12.65-16,1.492,1.492,0,0,1,2.9-.7A15.9,15.9,0,0,1,50.8,56.6ZM61.15,31.95a1.439,1.439,0,0,1-1.05-.45l-.1-.05a1.485,1.485,0,0,1,2.1-2.1l.1.1a1.45,1.45,0,0,1,0,2.1A1.614,1.614,0,0,1,61.15,31.95Z" transform="translate(-23.257 -13.03)" fill="#fe1f4c"/>
    <path id="Path_19" data-name="Path 19" d="M33.3,52.35a18.981,18.981,0,1,1,13.4-32.4h0a18.95,18.95,0,0,1-13.4,32.4Zm0-34.95A15.777,15.777,0,0,0,22,22.1a16.055,16.055,0,1,0,11.3-4.7ZM62.65,56.35,56.3,50a4.5,4.5,0,0,0-3.2-1.3,4.3,4.3,0,0,0-1.95.45L49.9,47.9A1.485,1.485,0,0,0,47.8,50l1.25,1.25a4.3,4.3,0,0,0-.45,1.95,4.5,4.5,0,0,0,1.3,3.2l6.4,6.3A4.457,4.457,0,0,0,59.5,64a4.675,4.675,0,0,0,3.2-1.3h0A4.543,4.543,0,0,0,62.65,56.35Zm-2.1,4.25a1.45,1.45,0,0,1-2.1,0l-6.4-6.35a1.439,1.439,0,0,1-.45-1.05,1.362,1.362,0,0,1,.45-1.05,1.439,1.439,0,0,1,1.05-.45,1.362,1.362,0,0,1,1.05.45L60.5,58.5A1.41,1.41,0,0,1,60.55,60.6Z" transform="translate(-5.757 -5.78)" fill="#444b54"/>
  </g>
</svg>
