<svg xmlns="http://www.w3.org/2000/svg" width="78" height="70.96" viewBox="0 0 78 70.96">
  <path id="telegram_app" d="M79.526,6.978c-1.331-1.128-3.42-1.29-5.581-.422h0C71.669,7.467,9.614,34.085,7.088,35.172c-.459.16-4.472,1.657-4.059,4.992.369,3.007,3.594,4.252,3.988,4.4l15.776,5.4C23.84,53.446,27.7,66.3,28.552,69.047c.532,1.712,1.4,3.961,2.92,4.424a3.625,3.625,0,0,0,3.52-.63L44.637,63.9,60.207,76.038l.371.222a7.5,7.5,0,0,0,3.037.7,5.619,5.619,0,0,0,2.148-.42,6.509,6.509,0,0,0,3.364-3.433l11.63-60.453C81.467,9.428,80.481,7.785,79.526,6.978ZM36.707,52.123,31.385,66.315l-5.322-17.74,40.8-30.158Z" transform="translate(-2.999 -6.002)" fill="#103a55"/>
</svg>
