<svg xmlns="http://www.w3.org/2000/svg" width="77.999" height="63.384" viewBox="0 0 77.999 63.384">
  <path id="twitter" d="M80,11.939a31.943,31.943,0,0,1-9.192,2.52,16.029,16.029,0,0,0,7.035-8.853A32.085,32.085,0,0,1,67.678,9.491,16.006,16.006,0,0,0,40,20.437a16.18,16.18,0,0,0,.414,3.645A45.428,45.428,0,0,1,7.429,7.361a16.031,16.031,0,0,0,4.953,21.365,15.969,15.969,0,0,1-7.248-2v.2A16,16,0,0,0,17.97,42.615a16.008,16.008,0,0,1-4.218.561,16.293,16.293,0,0,1-3.009-.285A16.021,16.021,0,0,0,25.692,54.005,32.1,32.1,0,0,1,5.818,60.857,32.151,32.151,0,0,1,2,60.632a45.3,45.3,0,0,0,24.53,7.188c29.434,0,45.526-24.383,45.526-45.529q0-1.039-.045-2.07A32.562,32.562,0,0,0,80,11.939Z" transform="translate(-1.999 -4.436)" fill="#103a55"/>
</svg>
