<svg xmlns="http://www.w3.org/2000/svg" width="62.688" height="62.688" viewBox="0 0 62.688 62.688">
  <g id="up" transform="translate(73.688 -11) rotate(90)">
    <path id="Path_74" data-name="Path 74" d="M43.57,14a29.57,29.57,0,1,0,29.57,29.57A29.57,29.57,0,0,0,43.57,14Z" transform="translate(-1.226 -1.226)" fill="#fff"/>
    <path id="Path_75" data-name="Path 75" d="M42.344,73.687A31.344,31.344,0,1,1,73.687,42.344,31.4,31.4,0,0,1,42.344,73.687Zm0-59.139a27.8,27.8,0,1,0,27.8,27.8A27.839,27.839,0,0,0,42.344,14.548Z" fill="#444b54"/>
    <path id="Path_76" data-name="Path 76" d="M50.276,58.421a1.764,1.764,0,0,1-1.419-.71,1.787,1.787,0,0,1,.355-2.484l11.828-8.871A1.774,1.774,0,0,1,63.168,49.2L51.341,58.066A1.772,1.772,0,0,1,50.276,58.421Z" transform="translate(-15.325 -14.303)" fill="#fe1f4c"/>
    <path id="Path_77" data-name="Path 77" d="M62.1,73.421a1.772,1.772,0,0,1-1.065-.355L49.212,64.2a1.774,1.774,0,0,1,2.129-2.839l11.828,8.871a1.787,1.787,0,0,1,.355,2.484A1.764,1.764,0,0,1,62.1,73.421Z" transform="translate(-15.325 -20.432)" fill="#fe1f4c"/>
  </g>
</svg>
