<svg xmlns="http://www.w3.org/2000/svg" width="29.725" height="36.005" viewBox="0 0 29.725 36.005">
  <g id="user_male" transform="translate(-23.918 -21.9)">
    <path id="Path_128" data-name="Path 128" d="M49.185,42.46a8.528,8.528,0,0,1-17.057,0V32.3l17.057,2.039Zm5.228,20.728a15.837,15.837,0,0,0-13.757-8.009h0A15.837,15.837,0,0,0,26.9,63.188l.037,1.261H54.376Z" transform="translate(-1.876 -6.544)" fill="#fff"/>
    <path id="Path_129" data-name="Path 129" d="M25.024,57.756a1.046,1.046,0,0,1-.556-.148,1.126,1.126,0,0,1-.408-1.52,16.932,16.932,0,0,1,29.441,0A1.113,1.113,0,0,1,51.573,57.2a14.705,14.705,0,0,0-25.585,0A1.106,1.106,0,0,1,25.024,57.756Zm18.8-33.187-.148-.222A5.817,5.817,0,0,0,38.966,21.9H35.814a8.53,8.53,0,0,0-8.528,8.528h0A1.093,1.093,0,0,0,28.4,31.541h2c4.264,0,8.6,0,11.717-2.781V28.8a4.23,4.23,0,0,0,.408-.408,1.112,1.112,0,0,1,1.557-.111,1.131,1.131,0,0,1,.074,1.632l-.519.519a.958.958,0,0,0,.334,1.557h0a4.239,4.239,0,0,0,1.187.26,1.124,1.124,0,0,1,1,1.112v2.521a7.5,7.5,0,0,1-6.9,7.564,7.428,7.428,0,0,1-7.9-7.379,1.113,1.113,0,1,0-2.225-.037,9.647,9.647,0,0,0,19.282.482V29.724A5.181,5.181,0,0,0,43.823,24.57Z" fill="#103a55"/>
  </g>
</svg>
