<svg xmlns="http://www.w3.org/2000/svg" width="74.074" height="65.473" viewBox="0 0 74.074 65.473">
  <path id="white_red_hat" d="M24.984,15.036a1.415,1.415,0,0,1,.145-.122c.022-.011.056-.033.078-.045a1.033,1.033,0,0,1,.111-.056.158.158,0,0,1,.067-.022.834.834,0,0,1,.178-.045h.011a1.071,1.071,0,0,1,.189,0,.084.084,0,0,0,.045.011.637.637,0,0,1,.156.045c.011.011.033.011.045.022a.72.72,0,0,1,.178.1H26.2a1.327,1.327,0,0,1,.2.167c1.3,1.269,1.758,1.391,4.674,1.2a17.037,17.037,0,0,1,2.715-.011c1.38.111,2.2.445,2.415,1a.645.645,0,0,1,.045.49c-.145.4-.924.59-2.871.8-2.8.312-4.173.69-4.685,1.313a.885.885,0,0,1-.634.378c-.49.033-1.113-.423-2.126-1.447a6.326,6.326,0,0,1-1.3-1.692,1.719,1.719,0,0,1-.134-.645c0-.122,0-.234.011-.345a.067.067,0,0,0,.011-.045,2.053,2.053,0,0,1,.056-.278.041.041,0,0,1,.011-.033,1.5,1.5,0,0,1,.089-.267c.011-.022.011-.033.022-.045.033-.067.067-.122.1-.178.011-.022.033-.045.045-.067a.384.384,0,0,1,.1-.134C24.951,15.081,24.962,15.059,24.984,15.036ZM44.471,55.367a1.855,1.855,0,0,1-2.5.145c-.968-.556-2.482-.556-2.949,0-.512.623-.145,1.324.723,1.324a4.154,4.154,0,0,1,1.7.59,4.058,4.058,0,0,0,1.647.59,3.256,3.256,0,0,0,2.415-2.482C45.495,54.622,45.183,54.577,44.471,55.367Zm-.423-44.994a9,9,0,0,0-1.113-.022h-.011c-.123,0-.245.011-.378.011a.481.481,0,0,1-.056.011c-.111,0-.234.011-.345.022a.084.084,0,0,0-.056.011l-.367.033h-.033a12.2,12.2,0,0,0-2.148.423H39.53a1.914,1.914,0,0,1-.234.078c-.011.011-.011.011-.022.011-.067.033-.123.056-.178.089h-.023c-.056.033-.1.067-.133.089l-.011.011a.227.227,0,0,0-.089.089c-.033.056-.044.089-.022.122l.011.011c.067.067.3.067.734-.022a7.819,7.819,0,0,1,3.906.445c.612.39-.022,1.246-1.168,1.569a4.1,4.1,0,0,0-.49.167c-.278.122-.412.234-.389.345.033.145.389.256,1.057.312a8.076,8.076,0,0,0,4.229-.69c.011-.011.011-.011.022-.011a.193.193,0,0,0,.056-.045c.623-.345.99-.779.957-1.235a.652.652,0,0,0-.056-.245C47.4,11.2,45.9,10.54,44.048,10.373ZM74.074,37.984A34.568,34.568,0,0,1,70.4,54.332c-1.914,3.94-1.647,3.739-4.44,3.383a20.449,20.449,0,0,0-7.935.656c-.946.3-1.213.545-1.324,1.246-.133.746-.412.957-1.914,1.547a10.357,10.357,0,0,0-3.684,2.56,18.666,18.666,0,0,1-2.5,2.17c-.768.368-2.215.712-2.215.523,0-.133,2.315-3.583,5-7.412a6.15,6.15,0,0,0,1.38-3.238,23.077,23.077,0,0,1,.757-3.572A8.256,8.256,0,0,0,54,49.914a3.035,3.035,0,0,0-1.413.289,6.208,6.208,0,0,1-4.24.1,3.334,3.334,0,0,0-2.626.156,2.487,2.487,0,0,1-2.56.011C42,50,41.744,50,38.984,50.493c-5.186.913-6.856.4-10.305-3.138-2.137-2.181-2.938-2.671-3.35-2a1.192,1.192,0,0,1-.868.3c-.5,0-.946-.4-1.636-1.48a9.469,9.469,0,0,0-1.769-2.07c-2.493-1.77-5.3-.479-5.3,2.426,0,1.191,2.393,4.8,3.606,5.42,1.591.835.69,2.07-1.313,1.792-1.035-.134-1.491-.445-2.894-1.948-1.48-1.614-1.769-1.792-2.8-1.781a6.863,6.863,0,0,0-2.37.556,15.585,15.585,0,0,1-6.277,1.2H1.692l-.467-1.692A30.238,30.238,0,0,1,0,37.984a33.486,33.486,0,0,1,.545-7.367A36.945,36.945,0,0,1,16.771,6.89a36.128,36.128,0,0,1,12.82-5.32,48.515,48.515,0,0,1,14.634-.033,37.479,37.479,0,0,1,26.008,19.8A34.255,34.255,0,0,1,74.074,37.984Zm-7.111.356a6.458,6.458,0,0,0-2.471-7.49c-1.391-1.057-4.93-2.593-5.976-2.593-.278,0-.779.545-1.158,1.258-.579,1.091-2.215,2.582-2.816,2.582-.111,0,.189-.746.679-1.67a10.819,10.819,0,0,0,.545-1.224,5,5,0,0,0,.345-1.513c0-1.87-1.313-6.076-2.916-9.838a37.5,37.5,0,0,0-2.638-5.208,14.241,14.241,0,0,0-1.091-1.536,5.681,5.681,0,0,0-1.9-1.525,7.978,7.978,0,0,0-1.725-.69.055.055,0,0,0-.033-.011c-.145-.033-.278-.078-.423-.111a.191.191,0,0,1-.078-.011c-.133-.022-.267-.056-.412-.078-.022,0-.056-.011-.078-.011-.145-.022-.278-.045-.423-.056a.141.141,0,0,1-.067-.011c-.323-.033-.634-.045-.968-.056-.034,0-.078.011-.111.011-.223,0-.468,0-.7.022a1.493,1.493,0,0,0-.223.011c-.256.022-.523.045-.79.078l-.278.033c-.256.045-.523.089-.79.134l-.334.067c-.211.045-.423.1-.645.156-.078.022-.156.033-.234.056a13.231,13.231,0,0,1-5.008.479c-8.024-.59-7.7-.59-9.025.089a3.9,3.9,0,0,0-1.658,1.424,16.421,16.421,0,0,0-1.614,4.774c-1.135,4.685-1.157,6.132-.134,7.356,1.046,1.246,4.418,2.782,7.779,3.561,4.029.924,6.766,1.736,7.523,2.237a2.593,2.593,0,0,1,.59.612,3.081,3.081,0,0,1,.423.768c.846,2.259,1.3,3.172,1.814,3.639a2.192,2.192,0,0,1,.345.378.99.99,0,0,1,.2.467c0,2.137-15.213-2.6-19.13-5.954a5.439,5.439,0,0,1-1.881-2.5,4.776,4.776,0,0,1-.089-1.8l.045-.412.122-1.046-3.9.134c-3.283.1-4.107.223-5.286.8-4.073,1.959-3.873,5.242.556,9.46a50.7,50.7,0,0,0,13.355,8.447A65.255,65.255,0,0,0,41.21,47.254a48.575,48.575,0,0,0,8.013.378,37.6,37.6,0,0,0,4.24-.356c6.555-.991,11.1-3.673,12.987-7.668A9.2,9.2,0,0,0,66.962,38.34Z" transform="translate(0 -0.998)" fill="#fff"/>
</svg>
