<svg xmlns="http://www.w3.org/2000/svg" width="120.952" height="106" viewBox="0 0 120.952 106">
  <g id="wi-fi" transform="translate(-5.168 -21)">
    <circle id="Ellipse_5" data-name="Ellipse 5" cx="10" cy="10" r="10" transform="translate(54 104)" fill="#fff"/>
    <path id="Path_87" data-name="Path 87" d="M64,127a13.112,13.112,0,0,1-9.2-3.8,13.011,13.011,0,0,1,18.4-18.4h0a12.977,12.977,0,0,1,0,18.4A13.112,13.112,0,0,1,64,127Zm0-20a7.384,7.384,0,0,0-5,2,7,7,0,1,0,9.9,0A6.966,6.966,0,0,0,64,107Z" fill="#444b54"/>
    <path id="Path_88" data-name="Path 88" d="M42.8,95.8a3,3,0,0,1-2.1-5.1,32.706,32.706,0,0,1,40-5.1,7.09,7.09,0,0,0,8.5-1l.1-.1a7.179,7.179,0,0,0,2-5.8,6.994,6.994,0,0,0-3.4-5.1,47.114,47.114,0,0,0-51.1,2.1A13.043,13.043,0,0,1,20,74.4v-.2a12.859,12.859,0,0,1,1.5-19.6,73.372,73.372,0,0,1,87.3,1.8,6.885,6.885,0,0,0,9.1-.6l.1-.1a6.925,6.925,0,0,0,2-5.3,6.848,6.848,0,0,0-2.7-5.1A86.859,86.859,0,0,0,10,45.8a2.991,2.991,0,0,1-3.7-4.7A93.132,93.132,0,0,1,63.6,21H64a93.433,93.433,0,0,1,57.1,19.5,12.925,12.925,0,0,1,1.2,19.4l-.1.1a12.97,12.97,0,0,1-17.1,1.1,67.067,67.067,0,0,0-80-1.6,6.759,6.759,0,0,0-2.8,5,7,7,0,0,0,2,5.5l.1.1a7.1,7.1,0,0,0,9.1.7,53.025,53.025,0,0,1,57.6-2.4,13.143,13.143,0,0,1,6.3,9.5,12.829,12.829,0,0,1-3.7,10.8l-.1.1a13.012,13.012,0,0,1-15.8,2A27.083,27.083,0,0,0,45,95,3.716,3.716,0,0,1,42.8,95.8Z" fill="#444b54"/>
  </g>
</svg>
