<svg xmlns="http://www.w3.org/2000/svg" width="74" height="58.143" viewBox="0 0 74 58.143">
  <path id="youtube" d="M38,2A180.881,180.881,0,0,0,11.881,3.982,11.292,11.292,0,0,0,2.487,13.17,102.743,102.743,0,0,0,1,31.071a102.739,102.739,0,0,0,1.487,17.9,11.316,11.316,0,0,0,9.395,9.188A181.884,181.884,0,0,0,38,60.143a181.555,181.555,0,0,0,26.1-1.982h.021a11.293,11.293,0,0,0,9.395-9.188A103.145,103.145,0,0,0,75,31.071a100.346,100.346,0,0,0-1.507-17.9,11.245,11.245,0,0,0-9.374-9.188A180.873,180.873,0,0,0,38,2Zm0,5.286a175.185,175.185,0,0,1,25.334,1.92A5.985,5.985,0,0,1,68.29,14.1a96.491,96.491,0,0,1,1.424,16.972,98.446,98.446,0,0,1-1.4,16.951,5.983,5.983,0,0,1-4.976,4.914A179.5,179.5,0,0,1,38,54.857a179.229,179.229,0,0,1-25.334-1.92A6.006,6.006,0,0,1,7.69,48.023a98.639,98.639,0,0,1-1.4-16.951A98.72,98.72,0,0,1,7.69,14.1a5.937,5.937,0,0,1,4.955-4.873h.021A174.646,174.646,0,0,1,38,7.286ZM27.429,17.857V44.286L53.857,31.071Z" transform="translate(-1 -2)" fill="#103a55"/>
</svg>
